# MagicaVoxel @ Ephtracy

# group
o 

# material
mtllib house.mtl
usemtl palette

# normals
vn -1 0 0
vn 1 0 0
vn 0 0 1
vn 0 0 -1
vn 0 -1 0
vn 0 1 0

# texcoords
vt 0.537109 0.5
vt 0.560547 0.5

# verts
v -1.7 1.5 1.4
v -1.7 1.5 -1.6
v -1.7 1.6 1.4
v -1.7 1.6 -1.6
v -1.6 0 1.3
v -1.6 0 -1.5
v -1.6 0.1 0.4
v -1.6 0.1 -0.5
v -1.6 0.8 0.4
v -1.6 0.8 -0.5
v -1.6 1.5 1.3
v -1.6 1.5 -1.5
v -1.6 1.6 1.3
v -1.6 1.6 -1.5
v -1.6 1.7 1.3
v -1.6 1.7 -1.5
v -1.5 1.7 1.2
v -1.5 1.7 -1.4
v -1.5 1.8 1.2
v -1.5 1.8 -1.4
v -1.4 1.8 1
v -1.4 1.8 -1.3
v -1.4 1.9 1
v -1.4 1.9 -1.3
v -0.4 0.4 1.3
v -0.4 0.4 1.2
v -0.4 0.9 1.3
v -0.4 0.9 1.2
v -0.3 0.3 -1.4
v -0.3 0.3 -1.5
v -0.3 1 -1.4
v -0.3 1 -1.5
v 0.9 0.5 1.3
v 0.9 0.5 1.2
v 0.9 0.9 1.3
v 0.9 0.9 1.2
v 1.3 0.1 1.2
v 1.3 0.1 -1.4
v 1.3 0.3 -0.5
v 1.3 0.3 -1.2
v 1.3 0.4 0.7
v 1.3 0.4 0.1
v 1.3 1 0.7
v 1.3 1 0.1
v 1.3 1 -0.5
v 1.3 1 -1.2
v 1.3 1.5 1.2
v 1.3 1.5 -1.4
v -1.5 0.1 1.2
v -1.5 0.1 0.4
v -1.5 0.1 -0.5
v -1.5 0.1 -1.4
v -1.5 0.2 1.2
v -1.5 0.2 0.4
v -1.5 0.2 -0.5
v -1.5 0.2 -1.4
v -1.4 0.2 1.2
v -1.4 0.2 0.4
v -1.4 0.2 -0.5
v -1.4 0.2 -1.4
v -1.4 0.8 0.4
v -1.4 0.8 -0.5
v -1.4 1.5 1.2
v -1.4 1.5 -1.4
v -1.2 0.3 -1.4
v -1.2 0.3 -1.5
v -1.2 1 -1.4
v -1.2 1 -1.5
v -1 0.4 1.3
v -1 0.4 1.2
v -1 0.9 1.3
v -1 0.9 1.2
v 0.3 0.5 1.3
v 0.3 0.5 1.2
v 0.3 0.9 1.3
v 0.3 0.9 1.2
v 1.2 1.8 1
v 1.2 1.8 -1.3
v 1.2 1.9 1
v 1.2 1.9 -1.3
v 1.3 1.7 1.2
v 1.3 1.7 -1.4
v 1.3 1.8 1.2
v 1.3 1.8 -1.4
v 1.4 0 1.3
v 1.4 0 -1.5
v 1.4 0.3 -0.5
v 1.4 0.3 -1.2
v 1.4 0.4 0.7
v 1.4 0.4 0.1
v 1.4 1 0.7
v 1.4 1 0.1
v 1.4 1 -0.5
v 1.4 1 -1.2
v 1.4 1.5 1.3
v 1.4 1.5 -1.5
v 1.4 1.6 1.3
v 1.4 1.6 -1.5
v 1.4 1.7 1.3
v 1.4 1.7 -1.5
v 1.5 1.5 1.4
v 1.5 1.5 -1.6
v 1.5 1.6 1.4
v 1.5 1.6 -1.6
v -1.7 1.5 1.4
v -1.7 1.6 1.4
v 1.5 1.5 1.4
v 1.5 1.6 1.4
v -1.6 0 1.3
v -1.6 1.5 1.3
v -1.6 1.6 1.3
v -1.6 1.7 1.3
v -1 0.4 1.3
v -1 0.9 1.3
v -0.4 0.4 1.3
v -0.4 0.9 1.3
v 0.3 0.5 1.3
v 0.3 0.9 1.3
v 0.9 0.5 1.3
v 0.9 0.9 1.3
v 1.4 0 1.3
v 1.4 1.5 1.3
v 1.4 1.6 1.3
v 1.4 1.7 1.3
v -1.5 1.7 1.2
v -1.5 1.8 1.2
v 1.3 1.7 1.2
v 1.3 1.8 1.2
v -1.4 1.8 1
v -1.4 1.9 1
v 1.2 1.8 1
v 1.2 1.9 1
v 1.3 0.4 0.1
v 1.3 1 0.1
v 1.4 0.4 0.1
v 1.4 1 0.1
v -1.6 0.1 -0.5
v -1.6 0.8 -0.5
v -1.5 0.1 -0.5
v -1.5 0.2 -0.5
v -1.4 0.2 -0.5
v -1.4 0.8 -0.5
v 1.3 0.3 -1.2
v 1.3 1 -1.2
v 1.4 0.3 -1.2
v 1.4 1 -1.2
v -1.5 0.1 -1.4
v -1.5 0.2 -1.4
v -1.4 0.2 -1.4
v -1.4 1.5 -1.4
v -1.2 0.3 -1.4
v -1.2 1 -1.4
v -0.3 0.3 -1.4
v -0.3 1 -1.4
v 1.3 0.1 -1.4
v 1.3 1.5 -1.4
v -1.5 0.1 1.2
v -1.5 0.2 1.2
v -1.4 0.2 1.2
v -1.4 1.5 1.2
v -1 0.4 1.2
v -1 0.9 1.2
v -0.4 0.4 1.2
v -0.4 0.9 1.2
v 0.3 0.5 1.2
v 0.3 0.9 1.2
v 0.9 0.5 1.2
v 0.9 0.9 1.2
v 1.3 0.1 1.2
v 1.3 1.5 1.2
v 1.3 0.4 0.7
v 1.3 1 0.7
v 1.4 0.4 0.7
v 1.4 1 0.7
v -1.6 0.1 0.4
v -1.6 0.8 0.4
v -1.5 0.1 0.4
v -1.5 0.2 0.4
v -1.4 0.2 0.4
v -1.4 0.8 0.4
v 1.3 0.3 -0.5
v 1.3 1 -0.5
v 1.4 0.3 -0.5
v 1.4 1 -0.5
v -1.4 1.8 -1.3
v -1.4 1.9 -1.3
v 1.2 1.8 -1.3
v 1.2 1.9 -1.3
v -1.5 1.7 -1.4
v -1.5 1.8 -1.4
v 1.3 1.7 -1.4
v 1.3 1.8 -1.4
v -1.6 0 -1.5
v -1.6 1.5 -1.5
v -1.6 1.6 -1.5
v -1.6 1.7 -1.5
v -1.2 0.3 -1.5
v -1.2 1 -1.5
v -0.3 0.3 -1.5
v -0.3 1 -1.5
v 1.4 0 -1.5
v 1.4 1.5 -1.5
v 1.4 1.6 -1.5
v 1.4 1.7 -1.5
v -1.7 1.5 -1.6
v -1.7 1.6 -1.6
v 1.5 1.5 -1.6
v 1.5 1.6 -1.6
v -1.6 0 1.3
v 1.4 0 1.3
v -1.6 0 -1.5
v 1.4 0 -1.5
v -1.5 0.2 1.2
v -1.4 0.2 1.2
v -1.5 0.2 0.4
v -1.4 0.2 0.4
v -1.5 0.2 -0.5
v -1.4 0.2 -0.5
v -1.5 0.2 -1.4
v -1.4 0.2 -1.4
v -1.6 0.8 0.4
v -1.4 0.8 0.4
v -1.6 0.8 -0.5
v -1.4 0.8 -0.5
v -1 0.9 1.3
v -0.4 0.9 1.3
v 0.3 0.9 1.3
v 0.9 0.9 1.3
v -1 0.9 1.2
v -0.4 0.9 1.2
v 0.3 0.9 1.2
v 0.9 0.9 1.2
v 1.3 1 0.7
v 1.4 1 0.7
v 1.3 1 0.1
v 1.4 1 0.1
v 1.3 1 -0.5
v 1.4 1 -0.5
v 1.3 1 -1.2
v 1.4 1 -1.2
v -1.2 1 -1.4
v -0.3 1 -1.4
v -1.2 1 -1.5
v -0.3 1 -1.5
v -1.7 1.5 1.4
v 1.5 1.5 1.4
v -1.6 1.5 1.3
v 1.4 1.5 1.3
v -1.4 1.5 1.2
v 1.3 1.5 1.2
v -1.4 1.5 -1.4
v 1.3 1.5 -1.4
v -1.6 1.5 -1.5
v 1.4 1.5 -1.5
v -1.7 1.5 -1.6
v 1.5 1.5 -1.6
v -1.5 0.1 1.2
v 1.3 0.1 1.2
v -1.6 0.1 0.4
v -1.5 0.1 0.4
v -1.6 0.1 -0.5
v -1.5 0.1 -0.5
v -1.5 0.1 -1.4
v 1.3 0.1 -1.4
v 1.3 0.3 -0.5
v 1.4 0.3 -0.5
v 1.3 0.3 -1.2
v 1.4 0.3 -1.2
v -1.2 0.3 -1.4
v -0.3 0.3 -1.4
v -1.2 0.3 -1.5
v -0.3 0.3 -1.5
v -1 0.4 1.3
v -0.4 0.4 1.3
v -1 0.4 1.2
v -0.4 0.4 1.2
v 1.3 0.4 0.7
v 1.4 0.4 0.7
v 1.3 0.4 0.1
v 1.4 0.4 0.1
v 0.3 0.5 1.3
v 0.9 0.5 1.3
v 0.3 0.5 1.2
v 0.9 0.5 1.2
v -1.7 1.6 1.4
v 1.5 1.6 1.4
v -1.6 1.6 1.3
v 1.4 1.6 1.3
v -1.6 1.6 -1.5
v 1.4 1.6 -1.5
v -1.7 1.6 -1.6
v 1.5 1.6 -1.6
v -1.6 1.7 1.3
v 1.4 1.7 1.3
v -1.5 1.7 1.2
v 1.3 1.7 1.2
v -1.5 1.7 -1.4
v 1.3 1.7 -1.4
v -1.6 1.7 -1.5
v 1.4 1.7 -1.5
v -1.5 1.8 1.2
v 1.3 1.8 1.2
v -1.4 1.8 1
v 1.2 1.8 1
v -1.4 1.8 -1.3
v 1.2 1.8 -1.3
v -1.5 1.8 -1.4
v 1.3 1.8 -1.4
v -1.4 1.9 1
v 1.2 1.9 1
v -1.4 1.9 -1.3
v 1.2 1.9 -1.3

# faces
f 3/2/1 2/2/1 1/2/1
f 4/2/1 2/2/1 3/2/1
f 7/1/1 6/1/1 5/1/1
f 8/1/1 6/1/1 7/1/1
f 9/1/1 7/1/1 5/1/1
f 10/1/1 6/1/1 8/1/1
f 11/1/1 9/1/1 5/1/1
f 11/1/1 10/1/1 9/1/1
f 12/1/1 6/1/1 10/1/1
f 12/1/1 10/1/1 11/1/1
f 15/2/1 14/2/1 13/2/1
f 16/2/1 14/2/1 15/2/1
f 19/2/1 18/2/1 17/2/1
f 20/2/1 18/2/1 19/2/1
f 23/2/1 22/2/1 21/2/1
f 24/2/1 22/2/1 23/2/1
f 27/1/1 26/1/1 25/1/1
f 28/1/1 26/1/1 27/1/1
f 31/1/1 30/1/1 29/1/1
f 32/1/1 30/1/1 31/1/1
f 35/1/1 34/1/1 33/1/1
f 36/1/1 34/1/1 35/1/1
f 39/1/1 38/1/1 37/1/1
f 40/1/1 38/1/1 39/1/1
f 41/1/1 39/1/1 37/1/1
f 42/1/1 39/1/1 41/1/1
f 43/1/1 41/1/1 37/1/1
f 44/1/1 39/1/1 42/1/1
f 45/1/1 39/1/1 44/1/1
f 46/1/1 38/1/1 40/1/1
f 47/1/1 45/1/1 44/1/1
f 47/1/1 46/1/1 45/1/1
f 47/1/1 43/1/1 37/1/1
f 47/1/1 44/1/1 43/1/1
f 48/1/1 38/1/1 46/1/1
f 48/1/1 46/1/1 47/1/1
f 49/1/2 50/1/2 53/1/2
f 53/1/2 50/1/2 54/1/2
f 51/1/2 52/1/2 55/1/2
f 55/1/2 52/1/2 56/1/2
f 57/1/2 58/1/2 61/1/2
f 59/1/2 60/1/2 62/1/2
f 57/1/2 61/1/2 63/1/2
f 61/1/2 62/1/2 63/1/2
f 62/1/2 60/1/2 64/1/2
f 63/1/2 62/1/2 64/1/2
f 65/1/2 66/1/2 67/1/2
f 67/1/2 66/1/2 68/1/2
f 69/1/2 70/1/2 71/1/2
f 71/1/2 70/1/2 72/1/2
f 73/1/2 74/1/2 75/1/2
f 75/1/2 74/1/2 76/1/2
f 77/2/2 78/2/2 79/2/2
f 79/2/2 78/2/2 80/2/2
f 81/2/2 82/2/2 83/2/2
f 83/2/2 82/2/2 84/2/2
f 85/1/2 86/1/2 87/1/2
f 87/1/2 86/1/2 88/1/2
f 85/1/2 87/1/2 89/1/2
f 89/1/2 87/1/2 90/1/2
f 85/1/2 89/1/2 91/1/2
f 90/1/2 87/1/2 92/1/2
f 92/1/2 87/1/2 93/1/2
f 88/1/2 86/1/2 94/1/2
f 92/1/2 93/1/2 95/1/2
f 93/1/2 94/1/2 95/1/2
f 85/1/2 91/1/2 95/1/2
f 91/1/2 92/1/2 95/1/2
f 94/1/2 86/1/2 96/1/2
f 95/1/2 94/1/2 96/1/2
f 97/2/2 98/2/2 99/2/2
f 99/2/2 98/2/2 100/2/2
f 101/2/2 102/2/2 103/2/2
f 103/2/2 102/2/2 104/2/2
f 107/2/3 106/2/3 105/2/3
f 108/2/3 106/2/3 107/2/3
f 113/1/3 110/1/3 109/1/3
f 114/1/3 110/1/3 113/1/3
f 115/1/3 113/1/3 109/1/3
f 116/1/3 110/1/3 114/1/3
f 117/1/3 116/1/3 115/1/3
f 118/1/3 110/1/3 116/1/3
f 118/1/3 116/1/3 117/1/3
f 119/1/3 117/1/3 115/1/3
f 120/1/3 110/1/3 118/1/3
f 121/1/3 115/1/3 109/1/3
f 121/1/3 120/1/3 119/1/3
f 121/1/3 119/1/3 115/1/3
f 122/1/3 110/1/3 120/1/3
f 122/1/3 120/1/3 121/1/3
f 123/2/3 112/2/3 111/2/3
f 124/2/3 112/2/3 123/2/3
f 127/2/3 126/2/3 125/2/3
f 128/2/3 126/2/3 127/2/3
f 131/2/3 130/2/3 129/2/3
f 132/2/3 130/2/3 131/2/3
f 135/1/3 134/1/3 133/1/3
f 136/1/3 134/1/3 135/1/3
f 139/1/3 138/1/3 137/1/3
f 140/1/3 138/1/3 139/1/3
f 141/1/3 138/1/3 140/1/3
f 142/1/3 138/1/3 141/1/3
f 145/1/3 144/1/3 143/1/3
f 146/1/3 144/1/3 145/1/3
f 149/1/3 148/1/3 147/1/3
f 151/1/3 150/1/3 149/1/3
f 152/1/3 150/1/3 151/1/3
f 153/1/3 151/1/3 149/1/3
f 154/1/3 150/1/3 152/1/3
f 155/1/3 149/1/3 147/1/3
f 155/1/3 154/1/3 153/1/3
f 155/1/3 153/1/3 149/1/3
f 156/1/3 150/1/3 154/1/3
f 156/1/3 154/1/3 155/1/3
f 157/1/4 158/1/4 159/1/4
f 159/1/4 160/1/4 161/1/4
f 161/1/4 160/1/4 162/1/4
f 159/1/4 161/1/4 163/1/4
f 162/1/4 160/1/4 164/1/4
f 163/1/4 164/1/4 165/1/4
f 164/1/4 160/1/4 166/1/4
f 165/1/4 164/1/4 166/1/4
f 163/1/4 165/1/4 167/1/4
f 166/1/4 160/1/4 168/1/4
f 157/1/4 159/1/4 169/1/4
f 167/1/4 168/1/4 169/1/4
f 159/1/4 163/1/4 169/1/4
f 163/1/4 167/1/4 169/1/4
f 168/1/4 160/1/4 170/1/4
f 169/1/4 168/1/4 170/1/4
f 171/1/4 172/1/4 173/1/4
f 173/1/4 172/1/4 174/1/4
f 175/1/4 176/1/4 177/1/4
f 177/1/4 176/1/4 178/1/4
f 178/1/4 176/1/4 179/1/4
f 179/1/4 176/1/4 180/1/4
f 181/1/4 182/1/4 183/1/4
f 183/1/4 182/1/4 184/1/4
f 185/2/4 186/2/4 187/2/4
f 187/2/4 186/2/4 188/2/4
f 189/2/4 190/2/4 191/2/4
f 191/2/4 190/2/4 192/2/4
f 193/1/4 194/1/4 197/1/4
f 197/1/4 194/1/4 198/1/4
f 193/1/4 197/1/4 199/1/4
f 198/1/4 194/1/4 200/1/4
f 193/1/4 199/1/4 201/1/4
f 199/1/4 200/1/4 201/1/4
f 200/1/4 194/1/4 202/1/4
f 201/1/4 200/1/4 202/1/4
f 195/2/4 196/2/4 203/2/4
f 203/2/4 196/2/4 204/2/4
f 205/2/4 206/2/4 207/2/4
f 207/2/4 206/2/4 208/2/4
f 211/1/5 210/1/5 209/1/5
f 212/1/5 210/1/5 211/1/5
f 215/1/5 214/1/5 213/1/5
f 216/1/5 214/1/5 215/1/5
f 219/1/5 218/1/5 217/1/5
f 220/1/5 218/1/5 219/1/5
f 223/1/5 222/1/5 221/1/5
f 224/1/5 222/1/5 223/1/5
f 229/1/5 226/1/5 225/1/5
f 230/1/5 226/1/5 229/1/5
f 231/1/5 228/1/5 227/1/5
f 232/1/5 228/1/5 231/1/5
f 235/1/5 234/1/5 233/1/5
f 236/1/5 234/1/5 235/1/5
f 239/1/5 238/1/5 237/1/5
f 240/1/5 238/1/5 239/1/5
f 243/1/5 242/1/5 241/1/5
f 244/1/5 242/1/5 243/1/5
f 247/2/5 246/2/5 245/2/5
f 248/2/5 246/2/5 247/2/5
f 251/2/5 250/2/5 249/2/5
f 252/2/5 250/2/5 251/2/5
f 253/2/5 247/2/5 245/2/5
f 254/2/5 246/2/5 248/2/5
f 255/2/5 253/2/5 245/2/5
f 255/2/5 254/2/5 253/2/5
f 256/2/5 246/2/5 254/2/5
f 256/2/5 254/2/5 255/2/5
f 257/1/6 258/1/6 260/1/6
f 259/1/6 260/1/6 261/1/6
f 260/1/6 258/1/6 262/1/6
f 261/1/6 260/1/6 262/1/6
f 262/1/6 258/1/6 263/1/6
f 263/1/6 258/1/6 264/1/6
f 265/1/6 266/1/6 267/1/6
f 267/1/6 266/1/6 268/1/6
f 269/1/6 270/1/6 271/1/6
f 271/1/6 270/1/6 272/1/6
f 273/1/6 274/1/6 275/1/6
f 275/1/6 274/1/6 276/1/6
f 277/1/6 278/1/6 279/1/6
f 279/1/6 278/1/6 280/1/6
f 281/1/6 282/1/6 283/1/6
f 283/1/6 282/1/6 284/1/6
f 285/2/6 286/2/6 287/2/6
f 287/2/6 286/2/6 288/2/6
f 285/2/6 287/2/6 289/2/6
f 288/2/6 286/2/6 290/2/6
f 285/2/6 289/2/6 291/2/6
f 289/2/6 290/2/6 291/2/6
f 290/2/6 286/2/6 292/2/6
f 291/2/6 290/2/6 292/2/6
f 293/2/6 294/2/6 295/2/6
f 295/2/6 294/2/6 296/2/6
f 293/2/6 295/2/6 297/2/6
f 296/2/6 294/2/6 298/2/6
f 293/2/6 297/2/6 299/2/6
f 297/2/6 298/2/6 299/2/6
f 298/2/6 294/2/6 300/2/6
f 299/2/6 298/2/6 300/2/6
f 301/2/6 302/2/6 303/2/6
f 303/2/6 302/2/6 304/2/6
f 301/2/6 303/2/6 305/2/6
f 304/2/6 302/2/6 306/2/6
f 301/2/6 305/2/6 307/2/6
f 305/2/6 306/2/6 307/2/6
f 306/2/6 302/2/6 308/2/6
f 307/2/6 306/2/6 308/2/6
f 309/2/6 310/2/6 311/2/6
f 311/2/6 310/2/6 312/2/6
