# Blender v2.75 (sub 0) OBJ File: 'Bush1.blend'
# www.blender.org
mtllib Bush1.mtl
o Icosphere
v -0.249717 0.416510 0.226411
v 0.363290 0.509500 0.354891
v -0.174198 0.667416 0.530309
v -0.481920 0.603790 0.079277
v 0.347977 0.395466 0.101028
v 0.592328 0.841252 0.265238
v -0.283436 0.437674 -0.216761
v -0.394503 1.038087 0.294301
v -0.028576 0.413211 0.078880
v 0.039773 0.411919 0.039440
v 0.039707 0.415421 -0.039440
v -0.028707 0.420217 -0.078880
v -0.096232 0.421494 -0.039915
v -0.097055 0.421479 -0.038742
v -0.096989 0.418007 0.039440
v 0.208499 1.095809 0.439389
v -0.470251 0.797041 -0.243849
v -0.164112 1.141783 0.427773
v 0.394881 0.616904 -0.229686
v 0.109025 0.426207 -0.250665
v 0.144226 1.390774 0.051068
v -0.182882 0.797831 -0.543776
v -0.408588 1.078301 -0.111709
v -0.140193 1.346907 -0.045203
v 0.456959 1.076256 -0.127461
v 0.062155 1.062748 -0.454335
v 0.000000 -0.100378 -0.100378
v -0.078718 0.062533 -0.100378
v 0.005838 0.042355 -0.050189
v 0.086930 -0.100378 -0.050189
v -0.086930 -0.100378 -0.050189
v -0.026132 0.282886 -0.078880
v 0.086930 -0.100378 0.050189
v -0.000000 -0.100378 0.100378
v -0.086930 -0.100378 0.050189
v 0.005838 0.042355 0.050189
v -0.163273 0.082712 -0.050189
v 0.042168 0.284167 -0.039440
v -0.094432 0.281605 -0.039440
v -0.078718 0.062533 0.100378
v -0.163273 0.082712 0.050189
v 0.042168 0.284167 0.039440
v -0.097055 0.421479 -0.039440
v -0.094432 0.281605 0.039440
v -0.026132 0.282886 0.078880
vn -0.017300 -0.768900 0.639100
vn -0.707600 -0.448400 0.546100
vn 0.053200 -0.912100 0.406500
vn 0.319400 0.035400 0.946900
vn -0.632000 -0.774900 0.011100
vn -0.812300 -0.119200 0.571000
vn 0.831400 -0.523900 0.185200
vn -0.044400 -0.998000 -0.044300
vn 0.347500 -0.112900 0.930900
vn -0.835800 -0.457400 -0.303700
vn -0.984000 0.166400 0.064000
vn -0.554100 0.187100 0.811100
vn 0.889300 -0.428300 -0.160600
vn -0.034600 -0.997400 -0.063600
vn 0.625800 0.667500 0.403500
vn -0.004400 0.211400 0.977400
vn -0.663500 -0.392900 -0.636700
vn -0.980300 0.190100 0.052800
vn -0.534700 0.784800 0.313300
vn 0.935100 -0.048200 -0.351200
vn 0.524500 -0.740000 -0.421100
vn -0.083900 -0.656900 -0.749300
vn 0.080200 0.800100 0.594500
vn 0.740500 0.657700 0.138400
vn -0.650700 0.435000 -0.622300
vn -0.715800 0.692100 0.093400
vn -0.263400 0.889800 0.372600
vn 0.633700 0.085500 -0.768900
vn 0.334300 -0.407600 -0.849800
vn 0.422800 0.727300 -0.540700
vn -0.458600 0.616700 -0.639900
vn 0.057700 0.833100 -0.550100
vn 0.446800 -0.113700 -0.887400
vn -0.436800 0.623100 -0.648800
vn 0.510100 0.266700 -0.817800
vn -0.511700 -0.229300 -0.828000
vn 0.502100 -0.036300 -0.864000
vn -0.000000 -1.000000 -0.000000
vn 0.869500 0.494000 0.000000
vn -0.476300 0.203800 -0.855300
vn 0.510100 0.266700 0.817800
vn -0.923000 -0.384900 0.000000
vn 0.988900 -0.148600 0.000000
vn 0.499900 0.009400 -0.866000
vn -0.499900 -0.009400 -0.866000
vn -0.511700 -0.229300 0.828000
vn -0.945000 0.327100 0.000000
vn 0.502100 -0.036300 0.864000
vn 0.999800 0.018700 0.000000
vn -0.999800 -0.018700 0.000000
vn -0.018800 0.999800 0.000000
vn -0.476300 0.203800 0.855300
vn 0.499900 0.009400 0.866000
vn -0.499900 -0.009400 0.866000
usemtl Leaves
s off
f 1//1 2//1 3//1
f 1//2 3//2 4//2
f 2//3 1//3 5//3
f 3//4 2//4 6//4
f 7//5 1//5 4//5
f 4//6 3//6 8//6
f 2//7 5//7 6//7
f 7//8 5//8 1//8 9//8 10//8 11//8 12//8
f 7//8 12//8 13//8 14//8 15//8 9//8 1//8
f 16//9 3//9 6//9
f 7//10 4//10 17//10
f 4//11 8//11 17//11
f 8//12 3//12 18//12
f 6//13 5//13 19//13
f 5//14 7//14 20//14
f 16//15 6//15 21//15
f 3//16 16//16 18//16
f 7//17 17//17 22//17
f 17//18 8//18 23//18
f 8//19 18//19 24//19
f 6//20 19//20 25//20
f 5//21 20//21 19//21
f 20//22 7//22 22//22
f 18//23 16//23 21//23
f 21//24 6//24 25//24
f 17//25 23//25 22//25
f 23//26 8//26 24//26
f 24//27 18//27 21//27
f 19//28 26//28 25//28
f 19//29 20//29 22//29
f 25//30 26//30 21//30
f 22//31 23//31 24//31
f 26//32 24//32 21//32
f 19//33 22//33 26//33
f 26//34 22//34 24//34
usemtl Tree
f 28//35 29//35 30//35 27//35
f 27//36 31//36 37//36 28//36
f 28//37 32//37 38//37 29//37
f 27//38 30//38 33//38 34//38 35//38 31//38
f 30//39 29//39 36//39 33//39
f 32//40 28//40 37//40 39//40
f 34//41 33//41 36//41 40//41
f 35//42 41//42 37//42 31//42
f 36//43 29//43 38//43 42//43
f 11//44 38//44 32//44 12//44
f 12//45 32//45 39//45 43//45 13//45
f 40//46 41//46 35//46 34//46
f 37//47 41//47 44//47 39//47
f 36//48 42//48 45//48 40//48
f 10//49 42//49 38//49 11//49
f 14//50 43//50 39//50 44//50 15//50
f 13//51 43//51 14//51
f 40//52 45//52 44//52 41//52
f 9//53 45//53 42//53 10//53
f 15//54 44//54 45//54 9//54
