# Blender v2.75 (sub 0) OBJ File: 'Grass1.blend'
# www.blender.org
mtllib Grass1.mtl
o Cube
v 0.920510 -0.227475 0.060268
v 0.919175 0.316675 0.060268
v 0.920510 -0.227475 -0.060268
v 0.919175 0.316675 -0.060268
v 0.283853 -0.227475 0.060268
v 0.285187 0.258449 0.060268
v 0.283853 -0.227475 -0.060268
v 0.285187 0.258449 -0.060268
v 0.819381 0.788334 0.056683
v 0.819381 0.788334 -0.056682
v 0.223110 0.733572 -0.056682
v 0.223110 0.733572 0.056682
v 0.590304 1.292816 0.041093
v 0.590304 1.292816 -0.041093
v 0.176770 1.160788 -0.041093
v 0.176770 1.160788 0.041093
v 0.327830 1.810168 0.026489
v 0.327830 1.810168 -0.026489
v 0.061267 1.725063 -0.026489
v 0.061267 1.725063 0.026489
v -0.030906 2.329900 0.016002
v -0.030906 2.329900 -0.016002
v -0.178020 2.246630 -0.016002
v -0.178020 2.246630 0.016002
v -1.542839 -0.227475 0.060268
v -1.541505 0.316675 0.060268
v -1.542839 -0.227475 -0.060268
v -1.541505 0.316675 -0.060268
v -0.906182 -0.227475 0.060268
v -0.907516 0.258449 0.060268
v -0.906182 -0.227475 -0.060268
v -0.907516 0.258449 -0.060268
v -1.441710 0.788334 0.056683
v -1.441710 0.788334 -0.056682
v -0.845438 0.733572 -0.056682
v -0.845438 0.733572 0.056682
v -1.212633 1.292816 0.041093
v -1.212633 1.292816 -0.041093
v -0.799099 1.160788 -0.041093
v -0.799099 1.160788 0.041093
v -0.950159 1.810168 0.026489
v -0.950159 1.810168 -0.026489
v -0.683596 1.725063 -0.026489
v -0.683596 1.725063 0.026489
v -0.591422 2.329900 0.016002
v -0.591422 2.329900 -0.016002
v -0.444309 2.246630 -0.016002
v -0.444309 2.246630 0.016002
vn 1.000000 0.002500 0.000000
vn 0.000000 -0.000000 -1.000000
vn -1.000000 0.002700 0.000000
vn 0.000000 -0.000000 1.000000
vn 0.000000 -1.000000 0.000000
vn 0.978300 0.207000 0.000000
vn -0.994200 -0.107800 0.000000
vn -0.000700 0.007500 1.000000
vn -0.000700 0.007500 -1.000000
vn -0.991600 -0.129600 0.000000
vn -0.007800 0.024300 0.999700
vn 0.910500 0.413500 0.000000
vn -0.005900 0.031700 0.999500
vn -0.005900 0.031700 -0.999500
vn -0.908900 -0.417000 0.000000
vn -0.007800 0.024300 -0.999700
vn -0.979700 -0.200500 0.000000
vn 0.891800 0.452400 0.000000
vn -0.492600 0.870300 0.000000
vn 0.823000 0.568100 0.000000
vn -0.006600 0.016300 0.999800
vn -0.006600 0.016300 -0.999800
vn -1.000000 0.002500 0.000000
vn 1.000000 0.002700 0.000000
vn -0.978300 0.207000 0.000000
vn 0.994200 -0.107800 0.000000
vn 0.000700 0.007500 1.000000
vn 0.000700 0.007500 -1.000000
vn 0.991600 -0.129600 0.000000
vn 0.007800 0.024300 0.999700
vn -0.910500 0.413500 0.000000
vn 0.005900 0.031700 0.999500
vn 0.005900 0.031700 -0.999500
vn 0.908900 -0.417000 0.000000
vn 0.007800 0.024300 -0.999700
vn 0.979700 -0.200500 0.000000
vn -0.891800 0.452400 0.000000
vn 0.492600 0.870300 0.000000
vn -0.823000 0.568100 0.000000
vn 0.006600 0.016300 0.999800
vn 0.006600 0.016300 -0.999800
usemtl Material.001
s off
f 2//1 1//1 3//1 4//1
f 4//2 3//2 7//2 8//2
f 8//3 7//3 5//3 6//3
f 6//4 5//4 1//4 2//4
f 1//5 5//5 7//5 3//5
f 4//6 10//6 9//6 2//6
f 12//7 16//7 15//7 11//7
f 2//8 9//8 12//8 6//8
f 8//9 11//9 10//9 4//9
f 6//10 12//10 11//10 8//10
f 13//11 17//11 20//11 16//11
f 10//12 14//12 13//12 9//12
f 9//13 13//13 16//13 12//13
f 11//14 15//14 14//14 10//14
f 20//15 24//15 23//15 19//15
f 15//16 19//16 18//16 14//16
f 16//17 20//17 19//17 15//17
f 14//18 18//18 17//18 13//18
f 24//19 21//19 22//19 23//19
f 18//20 22//20 21//20 17//20
f 17//21 21//21 24//21 20//21
f 19//22 23//22 22//22 18//22
f 26//23 28//23 27//23 25//23
f 28//2 32//2 31//2 27//2
f 32//24 30//24 29//24 31//24
f 30//4 26//4 25//4 29//4
f 25//5 27//5 31//5 29//5
f 28//25 26//25 33//25 34//25
f 36//26 35//26 39//26 40//26
f 26//27 30//27 36//27 33//27
f 32//28 28//28 34//28 35//28
f 30//29 32//29 35//29 36//29
f 37//30 40//30 44//30 41//30
f 34//31 33//31 37//31 38//31
f 33//32 36//32 40//32 37//32
f 35//33 34//33 38//33 39//33
f 44//34 43//34 47//34 48//34
f 39//35 38//35 42//35 43//35
f 40//36 39//36 43//36 44//36
f 38//37 37//37 41//37 42//37
f 48//38 47//38 46//38 45//38
f 42//39 41//39 45//39 46//39
f 41//40 44//40 48//40 45//40
f 43//41 42//41 46//41 47//41
