# Blender v2.75 (sub 0) OBJ File: 'Tree3.blend'
# www.blender.org
mtllib Tree3.mtl
o Icosphere.008
v -0.050023 1.329661 0.740397
v 0.484880 1.878626 0.869422
v -0.254333 1.999938 1.076724
v -0.711203 1.682342 0.534009
v 0.484880 1.486059 0.198595
v 0.154288 2.570591 0.742779
v -0.254333 1.364747 -0.008707
v -0.584925 2.449279 0.535477
v 0.611158 2.252996 0.200064
v 0.028387 1.359443 0.591852
v -0.045468 1.386784 0.173281
v -0.584925 2.056713 -0.135350
v 0.154288 1.935400 -0.342651
v 0.032162 1.361099 0.582468
v 0.006361 1.354458 0.599494
v -0.050023 2.605677 -0.006324
v -0.039985 1.389530 0.156198
v -0.047343 1.349215 0.548436
v 0.041458 1.365231 0.558785
v 0.029703 1.241971 0.517851
v -0.002813 1.352393 0.602562
v -0.002813 1.234661 0.529164
v -0.032762 1.393098 0.134207
v -0.035328 1.163954 0.278552
v -0.048796 1.181601 0.305863
v -0.032943 1.385240 0.213082
v -0.034139 1.348148 0.584737
v 0.027000 1.405332 0.126500
v 0.039561 1.404220 0.162014
v 0.043171 1.259617 0.490542
v 0.041966 1.101436 0.406592
v -0.021146 1.396074 0.126677
v -0.066138 1.066674 0.377851
v -0.038949 1.386169 0.192089
v -0.037075 1.353857 0.521500
v -0.044271 1.348980 0.556747
v -0.002812 1.400745 0.115059
v 0.028655 1.366389 0.522338
v 0.035694 1.130668 0.386848
v 0.038074 1.365509 0.549435
v -0.025642 1.349307 0.589496
v -0.035328 1.241971 0.517851
v -0.002812 1.075650 0.440537
v -0.002812 1.156644 0.267240
v -0.047590 1.060328 0.333525
v -0.041381 1.130374 0.387045
v -0.035328 1.158583 0.367991
v -0.035328 1.277264 0.463231
v -0.048797 1.259617 0.490542
v -0.002812 1.389642 0.226998
v 0.031863 1.404882 0.140443
v 0.008184 1.402427 0.119378
v 0.034645 1.401418 0.180762
v 0.029704 1.158583 0.367991
v 0.029703 1.277264 0.463231
v 0.041966 0.660784 0.344286
v 0.060514 1.066674 0.377851
v -0.066138 0.670431 0.300559
v -0.047590 1.101436 0.406592
v -0.016278 1.387815 0.219364
v -0.034414 1.355032 0.514806
v 0.043172 1.181601 0.305863
v 0.029704 1.163954 0.278552
v 0.027188 1.397620 0.204621
v 0.021527 1.365425 0.518266
v -0.002812 0.656788 0.362398
v 0.060513 0.670431 0.300559
v -0.002812 1.057699 0.315165
v -0.047590 0.680077 0.256833
v -0.047590 0.660784 0.344285
v -0.002812 1.181147 0.373657
v -0.009192 1.360740 0.506057
v -0.002813 1.284574 0.451919
v 0.041966 1.060328 0.333525
v -0.002813 1.362174 0.503950
v 0.063344 0.347890 0.286526
v 0.090747 0.349922 0.220401
v 0.041966 0.680077 0.256833
v -0.096371 0.349922 0.220401
v -0.068968 0.347890 0.286526
v 0.013768 1.393921 0.215942
v -0.002812 0.347049 0.313916
v 0.064195 0.341254 0.154393
v -0.002812 0.684073 0.238721
v -0.069819 0.341254 0.154394
v 0.068988 0.196251 0.296020
v 0.098728 0.213996 0.226448
v 0.068988 0.262204 0.156876
v -0.002812 0.372961 0.126651
v -0.074612 0.262204 0.156876
v -0.074612 0.196251 0.296020
v -0.002812 0.188901 0.324838
v 0.065652 0.297245 0.155339
v -0.002812 0.530032 0.020925
v -0.071558 0.294289 0.155469
v -0.104352 0.213996 0.226448
v -0.002812 0.099333 0.303503
v 0.068988 0.106684 0.274686
v 0.098728 0.124429 0.205113
v 0.068988 0.142174 0.135541
v 0.048879 0.498014 -0.019656
v 0.033739 0.520654 0.009039
v -0.039363 0.520654 0.009039
v -0.054503 0.498014 -0.019656
v -0.039363 0.475374 -0.048352
v -0.104352 0.124429 0.205113
v -0.074612 0.106683 0.274685
v -0.002812 -0.012976 0.306653
v 0.068988 -0.012975 0.276913
v -0.002812 0.149524 0.106723
v 0.033739 0.475374 -0.048352
v -0.007228 0.746955 -0.238555
v -0.043816 0.747329 -0.273311
v -0.002812 0.465996 -0.060237
v -0.074612 0.142174 0.135541
v -0.104352 -0.012975 0.205113
v -0.074612 -0.012975 0.276913
v 0.098728 -0.012975 0.205113
v -0.002812 0.239092 0.128058
v 0.068988 -0.012975 0.133313
v 0.043542 0.708475 -0.274411
v 0.029266 0.745623 -0.273386
v -0.059812 0.710888 -0.274305
v -0.045317 0.684178 -0.299637
v -0.009042 0.672409 -0.310161
v -0.074612 -0.012975 0.133313
v -0.002812 -0.012976 0.103573
v 0.027765 0.682472 -0.299713
v -0.010372 0.961949 -0.584253
v -0.041883 0.968763 -0.613638
v -0.056345 0.938325 -0.620599
v 0.032931 0.934454 -0.621153
v 0.021245 0.966025 -0.614029
v -0.044215 0.919684 -0.646577
v -0.013043 0.910829 -0.657499
v 0.018912 0.916947 -0.646968
v -0.004780 1.090165 -0.579020
v -0.027715 1.092165 -0.588328
v -0.037119 0.980574 -0.635180
v -0.033921 0.967058 -0.714215
v -0.011385 0.957871 -0.719156
v 0.022343 0.984439 -0.702972
v 0.017214 0.978340 -0.635735
v 0.018125 1.090177 -0.588612
v -0.037245 1.095006 -0.611082
v -0.042485 0.987249 -0.702570
v 0.011920 0.965070 -0.714500
v 0.002492 1.255747 -0.564105
v 0.012952 1.254974 -0.568570
v -0.019629 1.243339 -0.574001
v -0.008346 1.249716 -0.568887
v -0.029796 1.223980 -0.597355
v -0.024093 1.234929 -0.584131
v -0.027788 1.097025 -0.633953
v -0.032475 0.992088 -0.656180
v -0.025885 1.123191 -0.974482
v -0.006131 1.116417 -0.980449
v 0.014207 1.121452 -0.974731
v 0.023216 1.135345 -0.960676
v 0.013365 0.990100 -0.656465
v 0.027583 1.092195 -0.611483
v 0.023773 1.254271 -0.573055
v -0.026658 1.218308 -0.606185
v -0.021746 1.208935 -0.620690
v -0.034406 1.122365 -0.933895
v -0.033373 1.121909 -0.927150
v -0.028585 1.128383 -0.969451
v 0.016105 1.137982 -0.928899
v 0.019711 1.142086 -0.954145
v 0.015437 1.137102 -0.923193
v 0.028066 1.246630 -0.584972
v -0.004882 1.097038 -0.643544
v -0.014045 1.208443 -0.623870
v -0.026079 1.119691 -0.888100
v -0.025602 1.130830 -0.982215
v -0.005260 1.139927 -1.004247
v 0.015114 1.145905 -0.999484
v 0.023584 1.145263 -0.970716
v -0.001131 1.128121 -0.891775
v 0.018053 1.095037 -0.634238
v 0.032053 1.239725 -0.595776
v -0.008884 1.007093 -0.659932
v -0.000013 1.207376 -0.629899
v -0.021160 1.120952 -0.885392
v -0.005119 1.125755 -0.882462
v 0.026455 1.228377 -0.609583
v 0.008194 1.212060 -0.626117
v 0.022338 1.220283 -0.619391
v -0.050023 1.432225 -0.304018
v 0.388124 1.838456 -0.523892
v -0.217377 2.025555 -0.463054
v -0.591606 1.535729 -0.622329
v 0.388124 1.233003 -0.720765
v 0.117331 2.193029 -0.978096
v -0.217377 1.045904 -0.781604
v -0.488169 2.005930 -1.038934
v 0.491560 1.703204 -1.137370
v -0.488169 1.400477 -1.235807
v 0.117331 1.213378 -1.296646
v -0.050023 1.806708 -1.455681
vn 0.920600 -0.200700 0.334900
vn 0.382600 -0.489400 0.783600
vn -0.923800 -0.197100 -0.328200
vn 0.923800 -0.197100 0.328200
vn 0.373700 -0.490700 0.787100
vn 0.586300 -0.432900 0.684700
vn -0.920600 -0.200700 -0.334900
vn -0.920300 -0.095700 -0.379300
vn -0.918300 0.225300 0.325600
vn 0.993900 -0.057700 0.094500
vn 0.918300 0.225300 -0.325600
vn -0.382600 -0.488800 0.784000
vn -0.382600 -0.489400 -0.783600
vn -0.939700 0.199700 0.277700
vn -0.923800 0.218200 -0.314600
vn -0.920600 -0.201300 0.334700
vn -0.923800 -0.196600 0.328500
vn 0.923800 0.219100 -0.314000
vn -0.373700 -0.491400 0.786700
vn -0.373700 -0.490700 -0.787100
vn -0.902300 0.332000 0.275000
vn -0.369900 0.526900 0.765200
vn -0.918100 0.226500 -0.325200
vn -0.956700 0.164100 -0.240500
vn -0.993700 -0.058400 0.095800
vn 0.920600 -0.201300 -0.334700
vn 0.923800 -0.196600 -0.328500
vn 0.382700 -0.488800 -0.784000
vn 0.373700 -0.491400 -0.786700
vn 0.941500 0.193500 0.275800
vn 0.956500 0.164500 -0.240800
vn 0.902300 0.332000 0.275000
vn 0.371100 0.516300 -0.771900
vn -0.586300 -0.432900 0.684700
vn 0.531400 -0.136600 0.836000
vn 0.875900 -0.079400 0.475900
vn -0.372700 -0.402200 -0.836200
vn -0.919900 0.076300 -0.384700
vn -0.875900 -0.079400 0.475900
vn -0.476300 0.505900 0.719200
vn -0.382600 0.513800 -0.767900
vn 0.920300 -0.095700 -0.379300
vn 0.372700 -0.402200 -0.836200
vn 0.917600 0.230800 0.323500
vn 0.331400 0.580800 -0.743500
vn 0.382600 0.514500 -0.767400
vn -0.531400 -0.136600 0.836000
vn 0.380900 -0.142800 0.913500
vn 0.922800 -0.008700 0.385100
vn 0.919900 0.076300 -0.384700
vn -0.373100 0.184700 -0.909200
vn -0.911100 0.175800 -0.372900
vn -0.922800 -0.008700 0.385100
vn -0.331400 0.580800 -0.743500
vn 0.369000 0.534700 0.760200
vn -0.371000 0.517200 -0.771300
vn 0.473500 0.500400 0.724800
vn 0.911100 0.175800 -0.372900
vn -0.380900 -0.142800 0.913500
vn 0.373100 0.184700 -0.909200
vn 0.373000 0.067800 0.925400
vn 0.916300 0.064800 0.395300
vn 0.925100 0.040000 -0.377600
vn 0.441700 0.294800 -0.847300
vn -0.441700 0.294800 -0.847300
vn -0.925200 0.040100 -0.377200
vn -0.916300 0.064800 0.395300
vn -0.373000 0.067800 0.925400
vn 0.117200 0.600700 0.790800
vn 0.382600 -0.214100 0.898800
vn 0.923900 -0.088700 0.372300
vn 0.929200 0.073700 -0.362200
vn 0.968900 -0.089800 -0.230400
vn 0.974500 0.202500 0.096600
vn -0.117200 0.600700 0.790800
vn -0.975400 0.199300 0.093700
vn -0.966800 -0.095200 -0.237300
vn -0.929200 0.073700 -0.362200
vn -0.923900 -0.088700 0.372300
vn -0.382600 -0.214100 0.898700
vn 0.376600 0.021500 0.926100
vn 0.921600 0.003400 0.388200
vn 0.348200 0.187000 -0.918600
vn 0.458000 0.692600 0.557300
vn -0.448500 0.687900 0.570600
vn -0.433100 -0.581300 -0.688900
vn -0.921600 0.003400 0.388200
vn -0.376600 0.021500 0.926100
vn 0.921900 0.003000 -0.387500
vn 0.378200 0.015700 -0.925600
vn 0.433100 -0.581300 -0.688900
vn 0.919400 -0.293100 -0.262400
vn 0.912400 0.325900 0.247500
vn -0.899400 0.330000 0.286500
vn -0.924800 -0.302200 -0.231300
vn -0.386800 -0.714700 -0.582700
vn -0.921900 0.003000 -0.387500
vn -0.348200 0.187000 -0.918600
vn -0.000000 -1.000000 0.000000
vn 0.424500 0.767700 0.480100
vn -0.384900 0.778400 0.495900
vn -0.893800 0.378500 0.240400
vn 0.370300 -0.712100 -0.596400
vn -0.378200 0.015700 -0.925600
vn 0.910000 -0.333300 -0.246700
vn -0.928200 -0.306500 -0.210800
vn -0.396300 -0.759100 -0.516500
vn 0.926000 0.327600 0.187600
vn 0.587400 -0.103200 0.802700
vn -0.584100 -0.052500 0.810000
vn -0.882600 0.459000 0.101400
vn -0.932400 -0.216200 -0.289700
vn 0.344400 -0.773000 -0.532700
vn -0.407800 -0.719000 -0.562800
vn 0.906500 -0.295900 -0.301100
vn 0.920200 0.380800 0.090200
vn -0.992400 0.034100 0.118000
vn 0.337000 -0.751300 -0.567400
vn 0.993200 -0.052000 0.104200
vn 0.384400 -0.099600 0.917800
vn -0.380200 -0.067100 0.922500
vn -0.921800 0.012000 0.387600
vn -0.955900 0.079600 -0.282700
vn -0.936900 -0.286400 -0.200400
vn -0.415400 -0.774100 -0.477700
vn 0.340900 -0.806900 -0.482400
vn 0.906000 -0.366400 -0.211800
vn -0.371300 -0.067100 0.926100
vn 0.375400 -0.100300 0.921400
vn -0.918600 0.011700 0.395100
vn -0.917500 0.094100 -0.386500
vn -0.922900 0.094100 -0.373300
vn -0.926800 0.337500 0.164800
vn 0.933600 0.307800 0.183400
vn 0.952900 0.262400 0.152000
vn 0.955500 -0.003100 -0.295000
vn 0.924100 -0.067500 0.376200
vn -0.328900 0.197600 -0.923500
vn -0.371500 0.129000 -0.919400
vn -0.900400 0.391200 0.190400
vn -0.936400 -0.231800 -0.263300
vn -0.414800 -0.639700 -0.647100
vn 0.349800 -0.672800 -0.651900
vn 0.909500 -0.311800 -0.274700
vn 0.936400 0.231800 0.263300
vn 0.407600 0.798400 0.443200
vn 0.920800 -0.068800 0.383800
vn -0.383000 0.130000 -0.914500
vn -0.437000 0.793100 0.424300
vn 0.512100 0.754300 0.410900
vn 0.922900 0.013000 -0.384900
vn 0.333300 0.168900 -0.927600
vn 0.369900 0.097900 -0.923900
vn -0.330400 0.835100 0.439700
vn 0.917200 0.015800 -0.398000
vn 0.381400 0.095900 -0.919400
vn 0.187600 -0.394200 0.899700
vn -0.491100 -0.505600 0.709300
vn 0.607100 -0.685800 0.401400
vn 0.303500 0.309900 0.901000
vn -0.491100 -0.866100 0.093400
vn -0.794600 0.129700 0.593100
vn 0.982200 -0.161900 0.094700
vn 0.187600 -0.977500 -0.096900
vn -0.303500 0.633700 0.711500
vn 0.794600 0.453500 0.403600
vn -0.794600 -0.453500 -0.403600
vn -0.982200 0.161900 -0.094700
vn 0.794600 -0.129700 -0.593100
vn -0.187600 0.977500 0.096900
vn 0.491100 0.866100 -0.093400
vn -0.303500 -0.309900 -0.901000
vn -0.607100 0.685800 -0.401400
vn 0.303500 -0.633700 -0.711500
vn 0.491100 0.505600 -0.709300
vn -0.187600 0.394200 -0.899700
vn 0.187600 0.303300 0.934200
vn -0.491100 0.093600 0.866000
vn 0.607100 -0.245700 0.755700
vn 0.303500 0.830400 0.467300
vn -0.491100 -0.585100 0.645400
vn -0.794600 0.491100 0.356900
vn 0.982200 -0.058000 0.178400
vn 0.187600 -0.794800 0.577200
vn -0.303500 0.946400 0.110500
vn 0.794600 0.607100 0.000100
vn -0.794600 -0.607100 -0.000100
vn -0.982200 0.058000 -0.178400
vn 0.794600 -0.491100 -0.356900
vn 0.303500 -0.946400 -0.110500
vn -0.187600 0.794800 -0.577200
vn 0.491100 0.585100 -0.645400
vn -0.303500 -0.830400 -0.467300
vn -0.607100 0.245700 -0.755700
vn 0.491100 -0.093600 -0.866000
vn -0.187600 -0.303300 -0.934200
usemtl Tree
s off
f 10//1 20//1 14//1
f 15//2 22//2 20//2 10//2
f 17//3 24//3 25//3 11//3
f 14//4 20//4 30//4 19//4
f 21//5 22//5 15//5
f 20//6 22//6 43//6 31//6
f 23//7 24//7 17//7
f 25//8 24//8 45//8 33//8
f 11//9 25//9 34//9
f 30//10 20//10 31//10 39//10
f 19//11 30//11 40//11
f 41//12 42//12 22//12 21//12
f 32//13 44//13 24//13 23//13
f 34//14 25//14 47//14 26//14
f 35//15 48//15 49//15 18//15
f 18//16 49//16 36//16
f 36//17 49//17 42//17 27//17
f 40//18 30//18 55//18 38//18
f 27//19 42//19 41//19
f 37//20 44//20 32//20
f 59//21 46//21 47//21 25//21 33//21
f 26//22 47//22 60//22
f 61//23 48//23 35//23
f 49//24 48//24 47//24 46//24
f 42//25 49//25 46//25 59//25
f 29//26 62//26 51//26
f 51//27 62//27 63//27 28//27
f 52//28 63//28 44//28 37//28
f 28//29 63//29 52//29
f 53//30 54//30 62//30 29//30
f 55//31 30//31 39//31 54//31
f 54//32 39//32 31//32 57//32 62//32
f 38//33 55//33 65//33
f 59//34 43//34 22//34 42//34
f 66//35 56//35 31//35 43//35
f 56//36 67//36 57//36 31//36
f 68//37 45//37 24//37 44//37
f 69//38 58//38 33//38 45//38
f 58//39 70//39 59//39 33//39
f 60//40 47//40 71//40 50//40
f 72//41 73//41 48//41 61//41
f 63//42 62//42 57//42 74//42
f 44//43 63//43 74//43 68//43
f 64//44 54//44 53//44
f 54//45 71//45 73//45 55//45
f 65//46 55//46 73//46 75//46
f 43//47 59//47 70//47 66//47
f 56//48 66//48 82//48 76//48
f 67//49 56//49 76//49 77//49
f 67//50 78//50 74//50 57//50
f 45//51 68//51 84//51 69//51
f 58//52 69//52 85//52 79//52
f 70//53 58//53 79//53 80//53
f 48//54 73//54 71//54 47//54
f 50//55 71//55 81//55
f 75//56 73//56 72//56
f 81//57 71//57 54//57 64//57
f 77//58 83//58 78//58 67//58
f 80//59 82//59 66//59 70//59
f 68//60 74//60 78//60 84//60
f 76//61 82//61 92//61 86//61
f 77//62 76//62 86//62 87//62
f 87//63 88//63 93//63 83//63 77//63
f 83//64 89//64 84//64 78//64
f 69//65 84//65 89//65 85//65
f 95//66 90//66 96//66 79//66 85//66
f 80//67 79//67 96//67 91//67
f 82//68 80//68 91//68 92//68
f 89//69 83//69 102//69 94//69
f 97//70 98//70 86//70 92//70
f 98//71 99//71 87//71 86//71
f 88//72 87//72 99//72 100//72
f 93//73 88//73 111//73 101//73
f 83//74 93//74 101//74 102//74
f 94//75 103//75 85//75 89//75
f 95//76 85//76 103//76 104//76
f 90//77 95//77 104//77 105//77
f 96//78 90//78 115//78 106//78
f 106//79 107//79 91//79 96//79
f 107//80 97//80 92//80 91//80
f 97//81 108//81 109//81 98//81
f 98//82 109//82 118//82 99//82
f 100//83 110//83 119//83 88//83
f 94//84 102//84 122//84 112//84
f 103//85 94//85 112//85 113//85
f 105//86 114//86 119//86 90//86
f 106//87 116//87 117//87 107//87
f 107//88 117//88 108//88 97//88
f 99//89 118//89 120//89 100//89
f 100//90 120//90 127//90 110//90
f 88//91 119//91 114//91 111//91
f 101//92 111//92 128//92 121//92
f 102//93 101//93 121//93 122//93
f 113//94 123//94 104//94 103//94
f 105//95 104//95 123//95 124//95
f 114//96 105//96 124//96 125//96
f 115//97 126//97 116//97 106//97
f 90//98 119//98 110//98 115//98
f 109//99 108//99 117//99 116//99 126//99 127//99 120//99 118//99
f 112//100 122//100 133//100 129//100
f 113//101 112//101 129//101 130//101
f 123//102 113//102 130//102 131//102
f 125//103 128//103 111//103 114//103
f 126//104 115//104 110//104 127//104
f 121//105 128//105 136//105 132//105
f 131//106 134//106 124//106 123//106
f 125//107 124//107 134//107 135//107
f 132//108 133//108 122//108 121//108
f 129//109 133//109 144//109 137//109
f 130//110 129//110 137//110 138//110
f 130//111 139//111 155//111 146//111 131//111
f 134//112 131//112 146//112 140//112
f 135//113 136//113 128//113 125//113
f 135//114 134//114 140//114 141//114
f 132//115 136//115 147//115 142//115
f 133//116 132//116 142//116 160//116 143//116
f 138//117 145//117 139//117 130//117
f 136//118 135//118 141//118 147//118
f 133//119 143//119 161//119 144//119
f 148//120 137//120 144//120 149//120
f 150//121 138//121 137//121 151//121
f 152//122 145//122 138//122 153//122
f 145//123 154//123 155//123 139//123
f 140//124 146//124 165//124 167//124 156//124
f 141//125 140//125 156//125 157//125
f 147//126 141//126 157//126 158//126
f 142//127 147//127 158//127 159//127
f 151//128 137//128 148//128
f 149//129 144//129 162//129
f 153//130 138//130 150//130
f 163//131 145//131 152//131
f 164//132 154//132 145//132 163//132
f 165//133 146//133 155//133 166//133
f 168//134 142//134 159//134 169//134
f 170//135 160//135 142//135 168//135
f 143//136 160//136 180//136 161//136
f 162//137 144//137 161//137 171//137
f 154//138 172//138 182//138 155//138
f 173//139 154//139 164//139
f 166//140 155//140 174//140
f 175//141 156//141 167//141
f 176//142 157//142 156//142 175//142
f 177//143 158//143 157//143 176//143
f 178//144 159//144 158//144 177//144
f 169//145 159//145 178//145
f 179//146 160//146 170//146
f 171//147 161//147 181//147
f 183//148 172//148 154//148 173//148
f 174//149 155//149 182//149 184//149
f 185//150 182//150 160//150 179//150
f 181//151 161//151 180//151 186//151
f 172//152 180//152 160//152 182//152
f 187//153 172//153 183//153
f 184//154 182//154 185//154
f 186//155 180//155 188//155
f 188//156 180//156 172//156 187//156
usemtl Leaves
f 1//157 2//157 3//157
f 1//158 3//158 4//158
f 2//159 1//159 5//159
f 3//160 2//160 6//160
f 1//161 4//161 7//161
f 4//162 3//162 8//162
f 2//163 5//163 9//163
f 5//164 1//164 21//164 15//164 10//164 14//164 19//164 40//164 38//164 65//164 75//164 50//164 81//164 64//164 53//164 29//164 51//164 28//164 7//164
f 3//165 6//165 8//165
f 2//166 9//166 6//166
f 17//164 11//164 34//164 26//164 60//164 50//164 75//164 72//164 61//164 35//164 18//164 36//164 27//164 41//164 21//164 1//164 7//164 28//164 52//164 37//164 32//164 23//164
f 7//167 4//167 12//167
f 4//168 8//168 12//168
f 5//169 13//169 9//169
f 8//170 6//170 16//170
f 6//171 9//171 16//171
f 7//172 12//172 13//172
f 12//173 8//173 16//173
f 5//174 7//174 13//174
f 9//175 13//175 16//175
f 13//176 12//176 16//176
f 189//177 190//177 191//177
f 189//178 191//178 192//178
f 190//179 189//179 193//179
f 191//180 190//180 194//180
f 189//181 192//181 195//181
f 192//182 191//182 196//182
f 190//183 193//183 197//183
f 189//184 148//184 149//184 162//184 171//184 181//184 186//184 188//184 187//184 195//184 193//184
f 189//184 195//184 187//184 183//184 173//184 164//184 163//184 152//184 153//184 150//184 151//184 148//184
f 191//185 194//185 196//185
f 190//186 197//186 194//186
f 195//187 192//187 198//187
f 192//188 196//188 198//188
f 193//189 199//189 197//189
f 195//190 185//190 179//190 170//190 168//190 169//190 178//190 177//190 176//190 195//190 199//190 193//190
f 195//190 176//190 175//190 167//190 165//190 166//190 174//190 184//190 185//190
f 196//191 194//191 200//191
f 194//192 197//192 200//192
f 195//193 198//193 199//193
f 198//194 196//194 200//194
f 197//195 199//195 200//195
f 199//196 198//196 200//196
