# Blender v2.75 (sub 0) OBJ File: 'Grass3.blend'
# www.blender.org
mtllib Grass3.mtl
o Cube.001_Cube.003
v 0.160181 -0.034165 -0.091866
v 0.181939 0.041836 -0.098398
v 0.215567 -0.034165 -0.157873
v 0.212913 0.041836 -0.135311
v 0.192065 -0.034165 -0.065112
v 0.201141 0.041836 -0.082286
v 0.247452 -0.034165 -0.131119
v 0.232114 0.041836 -0.119199
v 0.191141 0.430944 -0.078289
v 0.208149 0.250063 -0.091469
v 0.189465 0.256180 -0.069202
v 0.196312 0.250063 -0.101402
v 0.177628 0.256180 -0.079134
v -0.170345 -0.024616 -0.298252
v -0.161009 0.032288 -0.312470
v -0.170345 -0.024616 -0.362767
v -0.161009 0.032288 -0.348549
v -0.139181 -0.024616 -0.298252
v -0.142241 0.032288 -0.312470
v -0.139181 -0.024616 -0.362767
v -0.142241 0.032288 -0.348549
v -0.141500 0.323622 -0.250204
v -0.157515 0.188192 -0.289101
v -0.157515 0.192772 -0.267337
v -0.169085 0.188192 -0.289101
v -0.169085 0.192772 -0.267337
v 0.122783 -0.021126 0.021097
v 0.121968 0.093283 0.055286
v 0.191373 -0.021126 0.131191
v 0.160325 0.093283 0.116853
v 0.069602 -0.021126 0.054229
v 0.089941 0.093283 0.075239
v 0.138192 -0.021126 0.164323
v 0.128298 0.093283 0.136806
v 0.097981 0.670364 0.090962
v 0.049840 0.420014 0.108760
v 0.026194 0.420014 0.070806
v 0.069583 0.420014 0.096460
v 0.045937 0.420014 0.058506
v -0.208532 -0.021126 -0.055601
v -0.189761 0.093283 -0.084188
v -0.208532 -0.021126 -0.185313
v -0.189761 0.093283 -0.156726
v -0.145875 -0.021126 -0.055601
v -0.152027 0.093283 -0.084187
v -0.145875 -0.021126 -0.185313
v -0.152027 0.093283 -0.156726
v -0.150538 0.670364 -0.101785
v -0.182738 0.420014 -0.112366
v -0.182738 0.420014 -0.067649
v -0.205999 0.420014 -0.112366
v -0.205999 0.420014 -0.067649
v 0.135717 -0.027812 -0.285275
v 0.095373 0.133038 -0.259122
v 0.062254 -0.027812 -0.118364
v 0.054290 0.133038 -0.165780
v 0.055090 -0.027812 -0.320762
v 0.046818 0.133038 -0.280492
v -0.018373 -0.027812 -0.153851
v 0.005735 0.133038 -0.187151
v 0.100937 0.310624 -0.298935
v 0.072315 0.310624 -0.233907
v 0.034568 0.310624 -0.250053
v 0.063189 0.310624 -0.315082
v 0.060875 0.682659 -0.213565
v 0.015874 0.450806 -0.145766
v 0.043226 0.444038 -0.207910
v 0.077435 0.444038 -0.193322
v 0.050084 0.450806 -0.131177
v -0.136110 -0.026583 0.089785
v -0.101039 0.107007 0.070691
v -0.064669 -0.026583 -0.043765
v -0.061088 0.107007 -0.003995
v -0.071598 -0.026583 0.124294
v -0.062189 0.107007 0.091473
v -0.000158 -0.026583 -0.009256
v -0.022237 0.107007 0.016788
v -0.098160 0.337608 0.108262
v -0.070327 0.337608 0.056231
v -0.050111 0.337608 0.067045
v -0.077944 0.337608 0.119076
v -0.095984 0.467129 0.060121
v -0.070619 0.478371 0.012705
v -0.056066 0.478371 0.020490
v -0.081430 0.467129 0.067906
v -0.095846 0.673752 0.077360
v -0.167383 0.256649 -0.207672
v -0.197880 0.256649 -0.149045
v -0.197880 0.256649 -0.207672
v -0.167383 0.256649 -0.149045
v 0.241481 0.145950 -0.159517
v 0.201133 0.149008 -0.142949
v 0.225962 0.145950 -0.172539
v 0.216652 0.149008 -0.129927
v 0.089069 0.256649 0.180764
v 0.083952 0.256649 0.114877
v 0.114954 0.256649 0.164638
v 0.058067 0.256649 0.131003
vn -0.755900 0.161900 -0.634300
vn 0.623600 0.242400 -0.743200
vn 0.764900 0.053700 0.641900
vn -0.623600 0.242400 0.743200
vn 0.000000 -1.000000 0.000000
vn -0.724500 0.232300 -0.649000
vn 0.000000 -0.129800 0.991500
vn 0.525000 0.577000 -0.625700
vn -0.551900 -0.512700 0.657700
vn 0.736300 -0.185700 0.650700
vn 0.000000 0.276100 -0.961100
vn 0.991800 -0.124800 0.026300
vn -0.976300 0.211700 -0.044500
vn -0.986800 0.161900 0.000000
vn 0.000000 0.242400 -0.970200
vn 0.998600 0.053700 0.000000
vn 0.000000 0.242400 0.970200
vn -0.998600 -0.052400 0.004100
vn 0.000000 0.356300 -0.934400
vn 0.000000 -0.270700 0.962700
vn 0.995100 0.098700 -0.007800
vn 0.837600 0.161900 -0.521800
vn 0.513000 0.242400 0.823400
vn -0.847500 0.053700 0.528000
vn -0.513000 0.242400 -0.823400
vn 0.848700 0.015000 -0.528700
vn -0.884900 0.039300 -0.464100
vn 0.472800 0.448000 0.758800
vn -0.488200 -0.384000 -0.783700
vn -0.848400 0.029200 0.528600
vn 0.877200 0.039300 0.478600
vn 0.444800 0.332600 -0.831600
vn -0.470400 -0.073100 0.879400
vn -0.998800 -0.049600 -0.000000
vn -0.516400 0.214800 -0.828900
vn 0.000000 0.503900 -0.863800
vn 0.000000 -0.446000 0.895100
vn 0.995600 0.093600 -0.000000
vn 0.528300 -0.041300 0.848000
vn -0.832100 0.196900 0.518400
vn 0.843900 -0.107300 -0.525700
vn 0.903200 0.161900 0.397500
vn -0.390800 0.242400 0.888000
vn -0.913900 0.053700 -0.402300
vn 0.390800 0.242400 -0.888000
vn 0.913500 0.061500 0.402100
vn 0.389600 -0.211800 -0.896300
vn -0.371300 0.364100 0.854100
vn -0.915300 0.005900 -0.402800
vn -0.000000 0.135100 0.990800
vn 0.000000 0.042200 -0.999100
vn 0.991800 -0.127600 -0.000000
vn -0.976300 0.216300 -0.000000
vn -0.316300 -0.593000 0.740500
vn 0.307100 0.623400 -0.719000
vn 0.900700 -0.157700 0.404800
vn -0.895700 0.185800 -0.404100
vn -0.870100 0.161900 -0.465500
vn 0.457600 0.242400 -0.855500
vn 0.880500 0.053700 0.471000
vn -0.457600 0.242400 0.855500
vn -0.878400 0.087500 -0.469900
vn 0.853600 0.203200 0.479600
vn -0.467300 -0.136500 0.873500
vn 0.457700 0.241800 -0.855600
vn 0.881800 0.003800 0.471700
vn -0.863400 -0.156600 -0.479600
vn -0.447200 0.318200 0.835900
vn 0.455200 -0.262200 -0.850900
vn -0.911400 0.057800 -0.407400
vn 0.914800 0.096800 0.392100
vn 0.391800 -0.050700 -0.918700
vn -0.370800 0.326200 0.869500
vn -0.756200 0.061600 -0.651400
vn 0.769300 0.025800 0.638400
vn 0.638500 0.115500 -0.760900
vn -0.642100 0.046000 0.765200
vn -0.000000 0.369000 0.929400
vn 0.000000 -0.297700 -0.954700
vn 0.758500 0.172300 0.628500
vn -0.589700 0.397800 0.702800
vn 0.605800 -0.334100 -0.722000
vn -0.762600 -0.129000 -0.633900
vn -0.802100 -0.327100 0.499700
vn -0.519800 0.183400 -0.834400
vn 0.526100 -0.100900 0.844400
vn 0.790600 0.363700 -0.492600
usemtl Material.003
s off
f 2//1 4//1 3//1 1//1
f 4//2 8//2 7//2 3//2
f 8//3 6//3 5//3 7//3
f 6//4 2//4 1//4 5//4
f 1//5 3//5 7//5 5//5
f 93//6 92//6 13//6 12//6
f 26//7 24//7 22//7
f 91//8 93//8 12//8 10//8
f 92//9 94//9 11//9 13//9
f 94//10 91//10 10//10 11//10
f 23//11 25//11 22//11
f 24//12 23//12 22//12
f 25//13 26//13 22//13
f 15//14 17//14 16//14 14//14
f 17//15 21//15 20//15 16//15
f 21//16 19//16 18//16 20//16
f 19//17 15//17 14//17 18//17
f 14//5 16//5 20//5 18//5
f 17//18 15//18 26//18 25//18
f 21//19 17//19 25//19 23//19
f 15//20 19//20 24//20 26//20
f 19//21 21//21 23//21 24//21
f 28//22 30//22 29//22 27//22
f 30//23 34//23 33//23 29//23
f 34//24 32//24 31//24 33//24
f 32//25 28//25 27//25 31//25
f 27//5 29//5 33//5 31//5
f 97//26 96//26 39//26 38//26
f 83//27 82//27 86//27
f 95//28 97//28 38//28 36//28
f 96//29 98//29 37//29 39//29
f 98//30 95//30 36//30 37//30
f 85//31 84//31 86//31
f 84//32 83//32 86//32
f 82//33 85//33 86//33
f 41//14 43//14 42//14 40//14
f 43//15 47//15 46//15 42//15
f 47//16 45//16 44//16 46//16
f 45//17 41//17 40//17 44//17
f 40//5 42//5 46//5 44//5
f 89//34 88//34 52//34 51//34
f 39//35 37//35 35//35
f 87//36 89//36 51//36 49//36
f 88//37 90//37 50//37 52//37
f 90//38 87//38 49//38 50//38
f 36//39 38//39 35//39
f 37//40 36//40 35//40
f 38//41 39//41 35//41
f 54//42 56//42 55//42 53//42
f 56//43 60//43 59//43 55//43
f 60//44 58//44 57//44 59//44
f 58//45 54//45 53//45 57//45
f 53//5 55//5 59//5 57//5
f 56//46 54//46 61//46 62//46
f 54//47 58//47 64//47 61//47
f 60//48 56//48 62//48 63//48
f 58//49 60//49 63//49 64//49
f 52//50 50//50 48//50
f 49//51 51//51 48//51
f 50//52 49//52 48//52
f 51//53 52//53 48//53
f 63//54 62//54 69//54 66//54
f 61//55 64//55 67//55 68//55
f 62//56 61//56 68//56 69//56
f 64//57 63//57 66//57 67//57
f 71//58 73//58 72//58 70//58
f 73//59 77//59 76//59 72//59
f 77//60 75//60 74//60 76//60
f 75//61 71//61 70//61 74//61
f 70//5 72//5 76//5 74//5
f 73//62 71//62 78//62 79//62
f 81//63 80//63 84//63 85//63
f 71//64 75//64 81//64 78//64
f 77//65 73//65 79//65 80//65
f 75//66 77//66 80//66 81//66
f 79//67 78//67 82//67 83//67
f 78//68 81//68 85//68 82//68
f 80//69 79//69 83//69 84//69
f 67//70 66//70 65//70
f 69//71 68//71 65//71
f 68//72 67//72 65//72
f 66//73 69//73 65//73
f 12//74 13//74 9//74
f 11//75 10//75 9//75
f 10//76 12//76 9//76
f 13//77 11//77 9//77
f 45//38 47//38 87//38 90//38
f 41//78 45//78 90//78 88//78
f 47//79 43//79 89//79 87//79
f 43//34 41//34 88//34 89//34
f 6//80 8//80 91//80 94//80
f 2//81 6//81 94//81 92//81
f 8//82 4//82 93//82 91//82
f 4//83 2//83 92//83 93//83
f 32//84 34//84 95//84 98//84
f 28//85 32//85 98//85 96//85
f 34//86 30//86 97//86 95//86
f 30//87 28//87 96//87 97//87
