# Blender v2.75 (sub 0) OBJ File: 'Rock2.blend'
# www.blender.org
mtllib Rock2.mtl
o Icosphere_Icosphere.002
v 0.361134 0.095778 0.782829
v -0.366829 0.018948 0.604805
v -0.519006 0.053294 -0.400728
v -0.161412 -0.050489 -0.883752
v -0.117648 0.629859 0.855010
v 0.794104 0.482335 0.409781
v 0.652935 0.023679 0.154705
v 0.446647 0.018474 -0.664218
v 0.801126 0.441825 -0.231296
v 0.117752 0.350955 0.994785
v -0.617506 0.353783 0.485692
v -0.516983 0.293751 -0.786831
v 0.446202 0.260076 -0.754285
v -0.098415 0.305561 -1.049410
v 0.452908 0.685794 0.681908
v 0.108848 0.983702 0.089877
v -0.187501 0.932766 0.379732
v -0.503682 0.732355 -0.333627
v 0.148436 0.688483 -0.669250
vn 0.026800 -0.998400 0.050300
vn 0.778300 -0.470700 0.415600
vn -0.102000 -0.691400 0.715300
vn -0.813500 -0.572200 0.103600
vn -0.694300 -0.609300 -0.383100
vn 0.654600 -0.003600 0.756000
vn -0.564600 -0.132900 0.814600
vn -0.991300 -0.109100 -0.073200
vn -0.502700 -0.290000 -0.814400
vn 0.841800 -0.187200 -0.506300
vn 0.077200 0.845900 0.527800
vn -0.666400 0.580500 0.467900
vn 0.603100 0.796400 -0.043700
vn 0.502600 0.814300 -0.290500
vn -0.125900 0.922300 -0.365300
vn -0.256700 0.759200 -0.598100
vn -0.412200 0.660700 -0.627300
vn -0.294800 0.946000 -0.135100
vn -0.775300 0.607500 0.173000
vn 0.187200 0.916900 0.352600
vn 0.561100 0.823100 0.088100
vn 0.600700 0.535400 -0.593700
vn -0.989700 0.116500 -0.083700
vn -0.568100 -0.068500 0.820100
vn 0.189000 0.562800 0.804700
vn 0.645600 0.064900 0.760900
vn 0.451500 0.465000 -0.761500
vn 0.431900 -0.314400 -0.845400
vn 0.348300 -0.445400 -0.824800
vn 0.950500 -0.309200 0.030000
vn 0.844500 -0.492800 -0.209600
vn 0.121300 -0.992300 -0.024200
vn -0.269000 -0.963100 0.007800
vn 0.068700 -0.987000 0.145200
usemtl Material.003
s off
f 7//1 2//1 4//1
f 1//2 7//2 6//2
f 2//3 1//3 10//3
f 3//4 2//4 11//4
f 4//5 3//5 12//5
f 1//6 6//6 10//6
f 2//7 10//7 11//7
f 3//8 11//8 12//8
f 4//9 12//9 14//9
f 8//10 13//10 9//10
f 5//11 15//11 17//11
f 11//12 5//12 17//12
f 6//13 9//13 16//13
f 16//14 9//14 19//14
f 19//15 18//15 16//15
f 19//16 14//16 18//16
f 14//17 12//17 18//17
f 18//18 17//18 16//18
f 18//19 11//19 17//19
f 17//20 15//20 16//20
f 15//21 6//21 16//21
f 13//22 19//22 9//22
f 12//23 11//23 18//23
f 11//24 10//24 5//24
f 10//25 15//25 5//25
f 10//26 6//26 15//26
f 13//27 14//27 19//27
f 13//28 8//28 14//28
f 8//29 4//29 14//29
f 6//30 7//30 9//30
f 7//31 8//31 9//31
f 7//32 4//32 8//32
f 4//33 2//33 3//33
f 2//34 7//34 1//34
